<svg width="331" height="77" viewBox="0 0 331 77" fill="none" xmlns="http://www.w3.org/2000/svg">
<path d="M80.5382 29.8316C80.5382 29.8316 64.2753 14.7708 44.9809 28.6709C25.6865 14.7708 9.42367 29.8316 9.42367 29.8316C-4.25053 41.6008 0.984404 56.6333 0.984404 56.6333L5.00602 52.6926C4.35075 38.729 15.7711 35.9772 15.7711 35.9772C30.1618 31.7755 36.5453 42.4016 36.5453 42.4016C42.7595 54.7458 29.8882 61.5054 29.8882 61.5054C19.3463 67.9579 8.7504 60.2247 8.7504 60.2247L5.38046 63.5269C11.4219 68.6106 18.151 70.4628 25.5569 69.1433C37.7622 66.9666 44.9809 53.3876 44.9809 53.3876C44.9809 53.3876 52.1997 66.9666 64.4049 69.1433C71.8109 70.4628 78.54 68.6106 84.5814 63.5269L81.2114 60.2247C81.2114 60.2247 70.6156 67.9579 60.0737 61.5054C60.0737 61.5054 47.2024 54.7423 53.4166 42.4016C53.4166 42.4016 59.7964 31.7755 74.1907 35.9772C74.1907 35.9772 85.6111 38.729 84.9558 52.6926L88.9775 56.6333C88.9775 56.6333 94.2124 41.6043 80.5418 29.8316H80.5382Z" fill="url(#paint0_linear_382_38)"/>
<path d="M27.4857 18.6886C31.781 17.5711 34.3384 13.2531 33.198 9.04424C32.0575 4.83535 27.6509 2.32931 23.3556 3.44685C19.0603 4.56439 16.5028 8.88232 17.6433 13.0912C18.7838 17.3001 23.1903 19.8061 27.4857 18.6886Z" fill="url(#paint1_linear_382_38)"/>
<path d="M69.4941 17.2825C72.9971 14.6027 73.6198 9.64765 70.8849 6.21514C68.15 2.78263 63.0933 2.17247 59.5903 4.85231C56.0873 7.53215 55.4646 12.4872 58.1995 15.9197C60.9343 19.3522 65.9911 19.9624 69.4941 17.2825Z" fill="url(#paint2_linear_382_38)"/>
<path d="M136.873 18.2705H144.546V48.5155H136.257V37.9317C136.257 35.5539 136.434 32.3999 136.653 30.456L136.434 30.3713C135.638 31.9695 134.317 34.0439 132.686 36.2453L127.879 42.6415H126.425L121.618 36.2453C119.944 34.0404 118.576 31.9695 117.784 30.3713L117.564 30.456C117.831 32.3999 118.05 35.5539 118.05 37.9317V48.5155H109.806V18.2705H117.478L127.267 31.5355L136.88 18.2705H136.873Z" fill="#B046FE"/>
<path d="M224.737 18.2705V25.0547H215.696V48.5155H207.318V25.0547H198.367V18.2705H224.737Z" fill="url(#paint3_linear_382_38)"/>
<path d="M255.513 18.2705H263.185V48.5155H254.897V37.9317C254.897 35.5539 255.073 32.3999 255.293 30.456L255.073 30.3713C254.278 31.9695 252.956 34.0439 251.325 36.2453L246.519 42.6415H245.064L240.258 36.2453C238.584 34.0404 237.215 31.9695 236.423 30.3713L236.204 30.456C236.47 32.3999 236.69 35.5539 236.69 37.9317V48.5155H228.445V18.2705H236.117L245.907 31.5355L255.52 18.2705H255.513Z" fill="url(#paint4_linear_382_38)"/>
<path d="M168.574 30.0221H149.748V36.33H168.574V30.0221Z" fill="#B147FF"/>
<path d="M169.456 18.2705H149.748V24.8819H169.456V18.2705Z" fill="#B147FF"/>
<path d="M170.072 41.8159H149.748V48.5119H170.072V41.8159Z" fill="#B147FF"/>
<path d="M193.183 30.0221H174.357V36.33H193.183V30.0221Z" fill="#B147FF"/>
<path d="M194.065 18.2705H174.357V24.8819H194.065V18.2705Z" fill="#B147FF"/>
<path d="M194.681 41.8159H174.357V48.5119H194.681V41.8159Z" fill="#B147FF"/>
<path d="M330.112 43.3999L323.801 34.0968C322.652 32.3998 322.624 30.2019 323.736 28.4803L329.63 19.3465C331.848 15.9103 329.327 11.4263 325.176 11.4263C323.3 11.4263 321.565 12.4035 320.622 13.9946L318.181 18.1117C316.784 20.4543 315.322 23.139 314.742 24.7407H314.508C313.867 22.9697 312.409 20.112 311.243 18.0553L308.91 14.0369C307.974 12.4247 306.224 11.4263 304.33 11.4263H304.107C299.963 11.4263 297.443 15.8997 299.65 19.3359L305.486 28.4239C306.609 30.1702 306.559 32.4069 305.36 34.1074L281.406 68.0814C278.994 71.5035 281.493 76.178 285.741 76.178H285.939C287.704 76.178 289.349 75.3136 290.325 73.8778L310.375 44.3701C311.891 41.8582 313.925 39.2476 314.393 38.108H314.627C315.21 39.5368 316.435 41.7065 318.008 44.3913L320.679 48.8647C321.626 50.4452 323.354 51.4189 325.227 51.4189H325.731C329.936 51.4189 332.445 46.8291 330.116 43.3999H330.112ZM304.416 20.3096C302.433 20.3096 300.823 18.7326 300.823 16.7887C300.823 14.8448 302.433 13.2679 304.416 13.2679C306.4 13.2679 308.01 14.8448 308.01 16.7887C308.01 18.7326 306.4 20.3096 304.416 20.3096ZM321.522 16.6194C321.522 14.6755 323.131 13.0985 325.115 13.0985C327.099 13.0985 328.708 14.6755 328.708 16.6194C328.708 18.5633 327.099 20.1403 325.115 20.1403C323.131 20.1403 321.522 18.5633 321.522 16.6194Z" fill="#F3369D"/>
<path d="M266.919 34.8059V18.154H275.232V34.9329C275.232 39.5933 277.388 41.6289 281.039 41.6289C284.69 41.6289 286.89 39.5086 286.89 35.0176V18.1505H295.203V34.8906C295.203 43.4917 289.748 48.4519 281.036 48.4519C272.323 48.4519 266.915 43.7069 266.915 34.8059H266.919Z" fill="#F3369D"/>
<defs>
<linearGradient id="paint0_linear_382_38" x1="0" y1="46.1674" x2="89.9621" y2="46.1674" gradientUnits="userSpaceOnUse">
<stop stop-color="#B046FE"/>
<stop offset="1" stop-color="#F3369D"/>
</linearGradient>
<linearGradient id="paint1_linear_382_38" x1="17.6433" y1="13.0912" x2="33.1556" y2="8.88782" gradientUnits="userSpaceOnUse">
<stop stop-color="#B046FE"/>
<stop offset="1" stop-color="#F3369D"/>
</linearGradient>
<linearGradient id="paint2_linear_382_38" x1="58.1995" y1="15.9197" x2="70.6887" y2="5.96886" gradientUnits="userSpaceOnUse">
<stop stop-color="#B046FE"/>
<stop offset="1" stop-color="#F3369D"/>
</linearGradient>
<linearGradient id="paint3_linear_382_38" x1="198.367" y1="33.393" x2="224.737" y2="33.393" gradientUnits="userSpaceOnUse">
<stop stop-color="#B147FF"/>
<stop offset="1" stop-color="#F3369D"/>
</linearGradient>
<linearGradient id="paint4_linear_382_38" x1="263.185" y1="33.1259" x2="182.5" y2="33" gradientUnits="userSpaceOnUse">
<stop stop-color="#F3369D"/>
<stop offset="1" stop-color="#AB4AFF"/>
</linearGradient>
</defs>
</svg>
